<?xml version="1.0" encoding="UTF-8" standalone="no"?>
<!-- Created with Inkscape (http://www.inkscape.org/) -->

<svg
   xmlns:dc="http://purl.org/dc/elements/1.1/"
   xmlns:cc="http://creativecommons.org/ns#"
   xmlns:rdf="http://www.w3.org/1999/02/22-rdf-syntax-ns#"
   xmlns:svg="http://www.w3.org/2000/svg"
   xmlns="http://www.w3.org/2000/svg"
   xmlns:sodipodi="http://sodipodi.sourceforge.net/DTD/sodipodi-0.dtd"
   xmlns:inkscape="http://www.inkscape.org/namespaces/inkscape"
   version="1.1"
   id="svg10"
   width="561"
   height="119"
   viewBox="0 0 561 119"
   sodipodi:docname="logo 3.svg"
   inkscape:version="0.92.4 (5da689c313, 2019-01-14)">
  <metadata
     id="metadata16">
    <rdf:RDF>
      <cc:Work
         rdf:about="">
        <dc:format>image/svg+xml</dc:format>
        <dc:type
           rdf:resource="http://purl.org/dc/dcmitype/StillImage" />
        <dc:title></dc:title>
      </cc:Work>
    </rdf:RDF>
  </metadata>
  <defs
     id="defs14" />
  <sodipodi:namedview
     pagecolor="#ffffff"
     bordercolor="#666666"
     borderopacity="1"
     objecttolerance="10"
     gridtolerance="10"
     guidetolerance="10"
     inkscape:pageopacity="0"
     inkscape:pageshadow="2"
     inkscape:window-width="1920"
     inkscape:window-height="1057"
     id="namedview12"
     showgrid="false"
     inkscape:zoom="0.78654189"
     inkscape:cx="394.10485"
     inkscape:cy="109.0829"
     inkscape:window-x="-8"
     inkscape:window-y="-8"
     inkscape:window-maximized="1"
     inkscape:current-layer="svg10" />
  <g
     id="g29"
     inkscape:transform-center-x="-193.25099"
     inkscape:transform-center-y="67.383569"
     transform="translate(-3.8141597,1.271391)">
    <path
       style="fill:#cad9e8"
       d="m 28.851716,115.54706 -1.683402,0.53429 -0.670247,-1.08448 -0.670247,-1.08448 1.33609,-1.61456 1.33609,-1.61456 6,-2.86901 6,-2.86902 -4.5,0.61075 -4.5,0.61076 -1.259592,0.38892 -1.259593,0.38892 -5.200198,-0.9862 -5.200199,-0.98619 -2.790209,-2.67319 L 13,99.625818 v -3.736184 -3.736183 l 2.458686,-2.921983 2.458687,-2.921983 12.126632,-0.609721 12.126633,-0.609721 4.315783,-2.529217 4.315782,-2.529217 4.236532,-4.765805 L 59.275266,70.5 61.562123,65.392229 63.848979,60.284458 65.053565,52.046249 66.25815,43.80804 65.754939,34.15402 65.251727,24.5 63.093544,16.206803 60.93536,7.913606 61.526697,6.956803 62.118034,6 h 0.996012 0.996012 l 2.31586,5.25 2.315861,5.25 2.178998,8.5 2.178999,8.5 0.589682,10.555853 0.589681,10.555852 -1.679077,9.444148 L 70.920985,73.5 67.43391,80.693257 63.946836,87.886515 56.723418,94.564778 49.5,101.24304 l 3,-0.70907 3,-0.70908 5.5,-0.96144 5.5,-0.961439 10.5,0.01237 10.5,0.01238 5.38649,1.036619 5.386489,1.036619 h 0.24082 0.240819 L 92.491977,93.453738 86.229336,86.907476 83.160821,81.150353 80.092307,75.393231 78.046154,66.207203 76,57.021174 v -8.603503 -8.603504 l 1.968191,-9.658079 1.968192,-9.65808 2.045556,-5.945513 2.045557,-5.9455133 1.57935,-2.4103929 1.57935,-2.410393 1.019466,1.0194657 1.019465,1.0194657 L 86.87158,17.162564 84.518033,28.5 l 0.04037,12 0.04037,12 1.839997,6.277129 1.839998,6.277129 0.877512,0.542333 0.877512,0.542332 L 89.45368,60.319461 88.873561,54.5 88.417644,52.249664 87.961727,49.999328 89.036928,43.268842 90.112128,36.538357 91.306064,34.09302 92.5,31.647684 93.610347,31.28706 94.720694,30.926435 94.610347,44.229237 94.5,57.532038 l 3.291565,6.691126 3.291565,6.691126 6.20843,5.580505 6.20844,5.580505 -1.73446,1.311227 -1.73445,1.311227 0.65112,0.651123 L 111.33333,86 h 9.75661 9.75661 l 3.07672,2.588894 3.07673,2.588893 -0.0318,4.161107 -0.0318,4.161106 -1.21819,1.57514 -1.2182,1.57514 -2.59145,1.68599 -2.59146,1.68598 -3.90854,0.21594 -3.90855,0.21594 -5,-0.78906 -5,-0.78907 6.25,3.74588 6.25,3.74588 V 113.18388 114 h -0.98829 -0.98829 l -8.26171,-3.39686 -8.26171,-3.39685 -7.734988,-1.70019 -7.734989,-1.70018 -9.311562,0.34704 -9.311563,0.34704 -5.078542,2.63732 -5.078543,2.63731 -6.374906,0.69993 -6.374907,0.69993 -8.982441,1.91914 -8.982441,1.91914 -1.683402,0.53429 z M 90.5,68 H 91 V 67.5 67 H 90.5 90 v 0.5 0.5 z m 69.89719,29 h -8.45996 l -0.56963,-1.484441 -0.56964,-1.484441 17.48183,-30.755301 17.48183,-30.755302 2.67249,-1.995302 2.67249,-1.995303 12.24055,-0.01496 12.24056,-0.01496 2.70957,1.775297 2.70957,1.775297 2.355,3.73056 2.355,3.730561 15.20184,26.811968 15.20183,26.811968 -0.32395,1.682174 -0.32396,1.682175 h -8.94647 -8.94647 L 235.53983,93.360303 233.5,90.220626 231.79651,87.110313 230.09302,84 H 204.2015 178.30998 l -1.5344,1.75 -1.5344,1.75 -1.59728,3.155259 -1.59728,3.155259 -1.59474,1.594741 L 168.85714,97 Z M 203.5,67 H 220 V 66.301862 65.603723 L 214.86707,56.551862 209.73414,47.5 208.61707,46.765313 207.5,46.030626 203.40499,46.015313 199.30998,46 l -1.53145,1.75 -1.53145,1.75 -4.62354,8.215312 L 187,65.930625 V 66.465312 67 Z m 63.04422,30 h -7.21089 L 258.66667,96.333333 258,95.666667 V 68.067732 40.468797 l 1.86799,-3.484399 1.86798,-3.484398 4.71277,-2.426638 4.71276,-2.426638 37.16925,-0.343128 37.16925,-0.343128 3,0.838495 3,0.838494 0.29066,7.025084 0.29065,7.025085 -1.37788,1.143541 -1.37788,1.143541 -36.41278,0.262646 L 276.5,46.5 v 4 4 l 37,0.5 37,0.5 v 8 8 l -37,0.5 -37,0.5 -0.28577,10.940632 -0.28576,10.940631 -1.08668,1.309369 L 273.75511,97 Z M 412.55,96.897639 372.5,96.795277 369.47908,96.070789 366.45816,95.346302 363.67797,93.524651 360.89778,91.703 359.19889,88.6015 357.5,85.5 l -0.32933,-19.47813 -0.32934,-19.478131 0.64694,-4.314066 0.64693,-4.314066 2.98239,-3.396748 2.98238,-3.396748 3.70001,-1.279822 3.70002,-1.279823 40.33006,-0.03123 40.33006,-0.03123 1.49867,2 1.49868,2 -0.39829,5.829464 -0.3983,5.829463 -1.43044,0.905224 L 451.5,45.969374 414.45,45.984687 377.4,46 376.2,47.2 375,48.4 V 63.231385 78.06277 l 1.25,0.414091 1.25,0.414091 37.35068,0.515632 37.35067,0.515633 1.39933,1.161336 L 455,82.244889 V 88.422445 94.6 l -1.2,1.2 -1.2,1.2 z M 504.9914,96.7914 464.4828,97.0828 463.2414,95.8414 462,94.6 v -5.60887 -5.608871 l 1.25,-1.686542 1.25,-1.686543 37,-0.254587 37,-0.254587 0.32418,-3.395135 0.32419,-3.395136 -1.32419,-0.839552 L 536.5,71.030626 504.46189,71.015313 472.42378,71 467.96189,68.75 463.5,66.5 461.75155,63 l -1.74844,-3.5 0.004,-8 0.004,-8 0.9881,-3.556846 0.98809,-3.556845 2.75633,-2.629536 2.75633,-2.629536 3,-1.260689 3,-1.260689 38.5,-0.151765 38.5,-0.151766 2.29222,0.840137 2.29222,0.840138 -0.29222,7.758698 L 554.5,45.5 l -38,0.5 -38,0.5 v 3.5 3.5 l 33.5,0.5 33.5,0.5 3.4966,2.054066 3.4966,2.054066 2.2534,3.343817 L 557,65.295766 V 75.5 85.704234 l -2.2534,3.343817 -2.2534,3.343817 -3.4966,2.054066 L 545.5,96.5 Z"
       id="path43"
       inkscape:connector-curvature="0" />
    <path
       style="fill:#a9cee6"
       d="M 30.105655,114 H 28 v -1.05341 -1.05341 l 9.25,-4.3421 9.25,-4.3421 5.065694,-1.49586 5.065693,-1.49585 9.067209,-1.283329 9.067209,-1.283324 9.589812,1.178518 9.589811,1.178515 5.596287,2.09384 5.596285,2.09384 -0.48807,0.48807 -0.48807,0.48807 -7.391138,-1.19232 -7.391139,-1.19231 -8.939791,0.35658 L 71.5,103.5 l -5.5,2.683 -5.5,2.683 -8.5,1.13193 -8.5,1.13192 -5.644345,1.43508 L 32.211311,114 Z M 28.039901,105.89764 25.5,105.79528 l -3.485611,-0.81953 -3.485611,-0.81953 -2.863949,-3.20531 -2.863948,-3.205316 0.623782,-3.122797 0.623782,-3.122797 2.305225,-2.306721 2.305226,-2.30672 11.663972,-0.377286 11.663971,-0.377286 5.155246,-2.805836 5.155247,-2.805837 4.847709,-5.991205 4.847709,-5.991204 1.489466,-4.518953 1.489465,-4.518952 1.125293,-8 1.125294,-8 -0.62712,-9.917349 -0.627121,-9.917349 -1.537749,-5.934367 -1.537749,-5.934367 0.357355,-1.648284 L 63.607239,8.5 l 2.133397,4.086703 2.133396,4.086703 2.204851,8.413297 2.20485,8.413297 0.472335,11 0.472335,11 L 71.056521,65.970649 68.88464,76.441298 66.209777,81.470649 63.534915,86.5 57.466858,92.546144 51.3988,98.592288 46.663209,100.81828 41.927617,103.04427 36.25371,104.52213 30.579802,106 Z m 94.960099,0.003 -1.5,-0.0884 -6.54702,-1.3055 -6.54702,-1.3055 -4.60681,-2.16546 L 99.192327,98.870151 93.27178,92.685075 87.351232,86.5 84.681257,81.921768 82.011282,77.343536 79.405706,66.921768 76.80013,56.5 l 0.504704,-12 0.504705,-12 2.062382,-7.781528 2.062383,-7.781528 2.145418,-4.718472 L 86.22514,7.5 86.705498,8.7787842 87.185856,10.057568 85.635884,19.278784 84.085911,28.5 83.437034,36 l -0.648876,7.5 1.634785,9.417705 1.634786,9.417705 2.721135,5.016682 2.721136,5.016681 4.751745,5.207732 4.751745,5.207732 4.24825,1.721356 4.24826,1.721356 10.86522,0.533601 10.86522,0.533601 2.47747,2.131026 2.47746,2.131026 0.10481,3.69723 0.1048,3.69723 -2.37323,2.526187 -2.37324,2.52619 -3.57425,0.9929 -3.57426,0.99291 -1.5,-0.0884 z m 382.87689,-9.727491 -37.62311,0.359077 -2.37689,-0.557368 -2.37689,-0.557369 -0.30157,-6.357084 -0.30157,-6.357085 1.04237,-1.042368 1.04237,-1.042369 35.51609,0.222296 35.51609,0.222296 1.99311,-1.066681 L 540,78.929812 v -3.405799 -3.405799 l -1.25,-0.78886 -1.25,-0.788859 -32,-0.04885 -32,-0.04885 -4.78377,-2.180018 -4.78378,-2.180018 -1.55435,-3.720077 -1.55434,-3.720077 0.33812,-9.750803 0.33812,-9.750804 2.06453,-2.82041 2.06454,-2.82041 3.93546,-2 3.93547,-2 37.95831,-0.306126 37.9583,-0.306127 2.1632,0.542928 2.16319,0.542927 0.50712,5.263199 0.50712,5.263199 -0.85387,2.25 -0.85387,2.25 H 516.05993 479.07037 L 478.03518,46.934437 477,48.868695 v 1.494313 1.494313 l 1.57143,1.571428 1.57143,1.571429 31.67857,0.02196 31.67857,0.02196 4.22934,1.919896 4.22934,1.919897 2.01692,3.308141 2.01692,3.308142 v 10 10 l -2.02293,3.318029 -2.02293,3.318029 -4.22333,1.838917 -4.22333,1.838917 -37.62311,0.359077 z M 160.34501,96 H 152 l 0.005,-1.25 0.005,-1.25 17.0595,-30 17.0595,-30 1.96231,-2 1.96231,-2 h 12.89738 12.89738 l 2.73652,2.041207 2.73652,2.041207 L 238.1235,63.041207 254.92545,92.5 254.96272,94.288933 255,96.077866 246.35163,95.788933 237.70326,95.5 l -3.62562,-6 -3.62562,-6 -24.97601,-0.281417 -24.97601,-0.281416 -2.04808,0.499791 -2.04809,0.499791 -2.35048,4.281625 L 171.70287,92.5 170.19645,94.25 168.69002,96 Z M 203.5,68 H 221 v -1.100306 -1.100306 l -5.49522,-9.790871 -5.49522,-9.790871 -1.58657,-0.608823 L 206.83643,45 203.16821,45.015313 199.5,45.030626 198.34778,45.765313 197.19556,46.5 191.59778,56.196985 186,65.89397 V 66.946985 68 Z m 63.73554,27.794101 -7.26446,0.294102 -0.53158,-1.385264 -0.53157,-1.385264 0.29603,-27.579964 0.29604,-27.579965 2.5,-2.673887 2.5,-2.673887 3,-1.654986 3,-1.654986 38.82051,-0.313929 38.8205,-0.313929 1.4716,1.221316 1.47159,1.221315 -0.2921,6.592613 L 350.5,44.5 314.08723,44.762646 277.67445,45.025292 276.33723,46.13509 275,47.244889 v 3.770567 3.770566 l 1.58179,0.606989 L 278.16357,56 h 35.81123 35.81122 l 0.60699,1.581787 L 351,59.163575 V 63.881787 68.6 l -1.2,1.2 -1.2,1.2 -35.55,0.01531 -35.55,0.01531 -1.21526,0.772234 -1.21526,0.772235 -0.28474,11.462453 L 274.5,95.5 Z M 412.5,95.669679 l -41,0.169679 -2.58643,-0.78945 -2.58643,-0.78945 -2.61184,-1.711344 -2.61184,-1.711345 -1.60851,-4.211825 -1.60851,-4.211825 0.30678,-21.63671 L 358.5,39.1407 l 2.06453,-2.82035 2.06454,-2.82035 3.93546,-2 3.93547,-2 40.12675,-0.301822 40.12675,-0.301821 1.62325,1.62325 L 454,32.142857 V 37.371429 42.6 l -1.2,1.2 -1.2,1.2 -37.05,0.01531 -37.05,0.01531 -1.27561,0.809532 -1.27561,0.809533 0.27561,16.425154 L 375.5,79.5 l 38.20132,0.5 38.20132,0.5 1.10025,1.10157 1.10025,1.10157 -0.30157,6.39843 L 453.5,95.5 Z M 108.99062,83 h -0.67605 L 103.90728,80.673828 99.5,78.347657 96.258621,74.107392 93.017243,69.867128 91.345983,64.183564 89.674722,58.5 l -0.05304,-8 -0.05304,-8 1.254226,-4.25 1.254227,-4.25 h 0.7305 0.7305 l 0.04134,11.75 0.04134,11.75 2.34384,6 2.34384,6 6.265835,6.163274 6.26584,6.163275 -0.58673,0.586725 L 109.66667,83 Z"
       id="path41"
       inkscape:connector-curvature="0" />
    <path
       style="fill:#90b1d1"
       d="m 31.37893,113 h -1.496964 l 0.615427,-0.99578 0.615427,-0.99578 7.606086,-3.51423 7.606087,-3.51423 6.587504,-2.10593 6.587503,-2.105937 13,-0.505977 13,-0.505977 6.491067,1.662991 6.491067,1.66298 1.008933,1.08805 1.008933,1.08804 -2.5,-0.56414 -2.5,-0.56413 -7,-0.66576 -7,-0.66575 -5.733846,1.06384 -5.733846,1.06384 -5.266154,2.43785 -5.266154,2.43784 -7,0.67107 -7,0.67106 -6.312053,1.42803 L 32.875894,113 Z M 28.5,104.97275 l -6,0.0149 -2.905314,-1.51512 -2.905314,-1.51511 L 15.37649,100.22873 14.063607,98.5 14.031803,95.673077 14,92.846154 16.923077,89.923077 19.846154,87 h 9.366824 9.366824 L 44.320401,85.504764 50.061,84.009528 54.2805,81.896965 58.5,79.784402 61.75,76.696034 65,73.607666 v -1.220499 -1.2205 L 64.102738,70.833333 63.205476,70.5 l 1.78761,-7 1.787611,-7 0.689769,-8.5 0.68977,-8.5 -1.075075,-10 -1.075074,-10 -0.562527,-2.5 -0.562528,-2.5 1.558534,2.69105 1.558534,2.69105 1.991944,8.30895 1.991944,8.30895 0.007,10.091069 L 72,56.682138 70.510824,61.591069 69.021649,66.5 69.010824,70.789838 69,75.079676 66.865966,79.289838 64.731931,83.5 l -3.050259,4.270572 -3.050259,4.270571 -5.256463,4.055333 -5.256464,4.055334 -6.809243,2.403 -6.809243,2.40301 -6,0.0149 z m 94.1849,-0.0278 -4.1849,-0.0551 -7.34996,-1.92516 -7.34995,-1.92515 -3.27878,-2.026402 L 97.242525,96.986769 93.336786,92.743385 89.431047,88.5 86.108957,83.664936 82.786868,78.829873 82.329162,74.664936 81.871457,70.5 l -2.062134,-8 -2.062134,-8 0.568931,-11.5 0.568931,-11.5 2.113163,-7.438302 2.113164,-7.438302 1.009419,-1.561698 1.009418,-1.561698 -0.590983,5 -0.590983,5 -1.015736,9.79429 -1.015737,9.79429 1.122178,8.20571 L 84.161131,59.5 86.080566,64.965341 88,70.430682 V 70.715341 71 H 86.5 85 v 0.923275 0.923274 l 2.630261,3.125888 2.630261,3.125888 4.852938,2.459169 4.852938,2.45917 5.726902,1.491668 L 111.4202,87 h 9.36682 9.36683 l 2.92307,2.923077 L 136,92.846154 v 2.888361 2.888362 l -2.09603,2.249823 -2.09603,2.24982 -2.46907,0.93874 L 126.8698,105 122.6849,104.9449 Z M 161.14863,95.790442 153,96.080885 V 94.440136 92.799388 L 158.68896,82.649694 164.37792,72.5 175.23104,53.519658 186.08416,34.539317 188.21639,32.269658 190.34863,30 h 12.37534 12.37535 l 2.70034,1.400865 2.70034,1.400866 17.33247,30.561192 17.33246,30.561193 -0.64148,1.037942 L 253.88197,96 h -7.286 -7.28599 l -1.48579,-1.75 -1.48579,-1.75 -2.72072,-4.765978 -2.72072,-4.765978 -27.17439,0.265978 -27.17439,0.265978 -3.62546,6 -3.62546,6 z M 203.5,69 h 17.38197 l 0.62048,-1.003963 0.62048,-1.003963 -5.1788,-9.246037 L 211.76534,48.5 210.22768,46.75 208.69002,45 H 203.5 198.30998 l -1.47749,1.75 -1.47748,1.75 -5.20811,9.295962 -5.20812,9.295962 0.58963,0.954038 L 186.11803,69 Z M 267.12756,95.921053 261.5,95.842105 260.25,95.337719 259,94.833333 259.00155,68.166667 259.00311,41.5 260.75155,38 262.5,34.5 266.96189,32.25 271.42378,30 h 39.18112 39.18112 l 0.60699,1.581787 L 351,33.163575 v 4.859195 4.859196 L 349.75,43.690983 348.5,44.5 312,45 275.5,45.5 v 5 5 l 37,0.5 37,0.5 v 7 7 l -37,0.5 -37,0.5 -0.28577,10.940632 -0.28576,10.940631 -1.08668,1.309369 L 272.75511,96 Z M 412.55,95.897639 373.5,95.795277 l -3.22495,-0.766216 -3.22495,-0.766216 -2.50424,-1.64084 -2.50424,-1.64084 -1.77081,-3.240583 L 358.5,84.5 v -22 -22 l 1.88554,-3.114459 1.88554,-3.114458 3.11446,-1.885542 L 368.5,30.5 h 42 42 l 0.30184,6.408942 0.30185,6.408943 -1.30185,0.825744 L 450.5,44.969374 413.45,44.984687 376.4,45 l -1.2,1.2 -1.2,1.2 v 15.228571 15.228572 l 1.57143,1.571428 L 377.14286,81 H 414.37143 451.6 l 1.2,1.2 1.2,1.2 v 5.1 5.1 l -1.2,1.2 -1.2,1.2 z m 92.26334,-0.09503 -39.68667,0.302605 -1.06431,-1.988684 -1.06431,-1.988684 0.76415,-5.313921 0.76415,-5.313922 37.27406,-0.5 37.27406,-0.5 0.94745,-1.5 0.94745,-1.5 v -2 -2 L 540.02255,72 539.07573,70.5 505.28786,70 471.5,69.5 468.25942,67.72919 465.01884,65.95838 463.25942,63.273169 461.5,60.587958 V 50.543979 40.5 l 1.72272,-3.147588 1.72272,-3.147588 4.367,-2.114028 4.367,-2.114028 39.91028,0.261616 L 553.5,30.5 l 0.2936,6.091371 0.2936,6.09137 -1.38102,1.146142 -1.38101,1.146141 -36.91259,0.262488 L 477.5,45.5 l -0.31823,3.315324 -0.31823,3.315324 1.19067,1.434676 1.19068,1.434676 30.62755,0.0056 30.62756,0.0056 3.84442,1.067499 3.84443,1.067499 3.65557,3.348134 3.65558,3.348135 0.32771,10.328789 0.32772,10.32879 -2.33111,3.445934 -2.33112,3.445934 -3.4966,2.054066 L 544.5,95.5 504.81334,95.802606 Z m -397.8475,-14.808767 -0.46584,-0.0062 -3,-1.560272 -3,-1.560271 -2.169182,-2.031958 -2.169182,-2.031957 -2.231797,-5.15161 L 91.698042,63.5 l -0.246981,-10 -0.246982,-10 0.393697,4.5 0.393697,4.5 1.101258,5.987226 1.101257,5.987225 1.509538,3.012775 1.509538,3.012774 5.109306,5.25 5.10931,5.25 -0.46584,-0.0062 z"
       id="path39"
       inkscape:connector-curvature="0" />
    <path
       style="fill:#6ba3cc"
       d="m 35.277023,111.87603 -4.222977,0.84554 0.576854,-0.93337 0.576855,-0.93337 7.646122,-3.48907 7.646123,-3.48907 6.767678,-1.87953 6.767678,-1.87954 6.919734,-0.681853 6.919734,-0.681853 5.646779,0.705518 5.64678,0.705518 -0.394188,0.39419 -0.394188,0.39419 -7.440004,1.04304 -7.440003,1.04305 -5,2.35878 -5,2.35877 -10.5,1.63677 -10.5,1.63676 z M 30,104.53467 24.5,105.00793 21.093664,103.75397 17.687328,102.5 15.713407,99.837053 13.739486,97.174105 14.357059,94.713501 14.974631,92.252898 16.740455,90.072196 18.50628,87.891495 30.00314,87.497772 41.5,87.104049 48,84.960737 l 6.5,-2.143312 3.180072,-1.947054 3.180073,-1.947055 3.13158,-3.566672 3.13158,-3.566673 0.533508,0.533509 0.533508,0.533508 -0.663935,3.022877 -0.663935,3.022878 -3.867783,5.984212 -3.867784,5.984213 -5.800621,4.552708 -5.800622,4.552709 L 41.512821,102.019 35.5,104.06141 Z m 95.5,-0.13629 -4,0.49947 -6.60652,-1.35937 -6.60651,-1.35937 -4.91329,-2.489752 L 98.460393,97.199607 93.746174,92.159725 89.031955,87.119844 86.015977,82.364141 83,77.608439 v -2.512428 -2.512427 l 4.25,4.149552 4.25,4.149551 4.727838,2.013619 4.727842,2.013619 7.48,1.545038 7.48,1.545037 h 7.31966 7.31965 l 2.10824,1.476671 2.10824,1.476671 0.6159,2.453931 0.6159,2.453931 -0.957,2.517099 -0.957,2.517097 -2.29464,1.50176 -2.29463,1.50176 z M 505,95.460794 466.5,96.141977 465.25,94.870989 464,93.6 V 87.906989 82.213978 L 465.58179,81.606989 467.16357,81 H 502.88179 538.6 l 1.2,-1.2 1.2,-1.2 v -3.177555 -3.177556 l -1.2618,-1.0472 -1.2618,-1.0472 L 505.9882,69.813995 473.5,69.477501 469.9179,67.85993 466.3358,66.24236 464.1679,63.486321 462,60.730283 462.004,50.615141 462.008,40.5 l 2.01815,-3.310176 2.01816,-3.310175 3.72811,-1.689825 L 473.5,30.5 l 38.97322,-0.304964 38.97323,-0.304965 1.27677,1.746094 L 554,33.382259 v 3.727083 3.727083 L 553.39301,42.418213 552.78602,44 h -36.86996 -36.86995 l -1.63329,2.492715 -1.63329,2.492715 0.63816,2.542654 0.63817,2.542655 2.53717,0.964631 2.53717,0.96463 30.6849,0.02196 30.6849,0.02196 4.18368,1.899455 4.18369,1.899455 1.7871,3.328583 1.78711,3.328583 v 9 9 l -1.79179,3.337637 -1.79179,3.337636 -4.179,1.802169 -4.179,1.802169 -38.5,0.681183 z m -343.94038,-0.66836 -8.30616,0.292434 0.54096,-1.409721 0.54096,-1.409721 8.40055,-14.882713 L 170.63649,62.5 179.06824,47.64837 187.5,32.79674 190.20034,31.39837 192.90068,30 l 10.29966,0.0016 10.29966,0.0016 3.4162,1.748446 3.41619,1.748446 16.80624,29.5 16.80624,29.5 0.0276,1.25 L 254,95 h -7.76637 -7.76637 l -3.28513,-5.492381 -3.28514,-5.49238 -1.88275,-1.00762 L 228.13148,82 203.31574,82.01531 178.5,82.03062 l -1.44766,0.915862 -1.44765,0.915862 -3.11945,5.318825 -3.11946,5.318825 -8.30616,0.292434 z M 203.5,69 H 222 v -1.600306 -1.600306 l -5.55224,-9.89247 -5.55225,-9.89247 L 209.0135,45.007224 207.13148,44 h -3.87461 -3.87461 l -1.63237,1.25 -1.63237,1.25 -5.55876,9.878197 L 185,66.256395 V 67.628197 69 Z M 267,95 h -7 V 67.134859 39.269717 l 2.0883,-2.654838 2.08829,-2.654838 L 267.3383,32.23002 270.5,30.5 h 39.5 39.5 v 6.5 6.5 l -35.93544,0.262832 -35.93544,0.262832 -1.86237,1.685424 -1.86237,1.685423 0.29781,4.051745 L 274.5,55.5 l 36.70113,0.5 36.70113,0.5 1.10608,1.107212 1.10608,1.107211 -0.30721,5.392789 L 349.5,69.5 313,70 276.5,70.5 275.25,71.309017 274,72.118034 V 83.559017 95 Z m 144.75,-0.03914 -41.25,-0.03914 -3,-1.33336 -3,-1.33336 -2.5,-2.705951 -2.5,-2.70595 L 359.22359,64.171547 358.94718,41.5 360.72359,38 362.5,34.5 l 4,-2 4,-2 39.83342,-0.303211 39.83342,-0.30321 1.46171,1.213112 1.46172,1.213112 -0.29514,5.590099 L 452.5,43.5 l -38,0.5 -38,0.5 -1.25,0.809017 -1.25,0.809017 v 16.833994 16.833994 l 1.58179,0.606989 L 377.16357,81 H 413.5 449.83643 l 1.58178,0.606989 L 453,82.213978 V 88.606989 95 Z M 67.023177,66 H 65.944301 L 66.72215,59.25 67.5,52.5 67.348813,37.050877 67.197626,21.601753 l 0.907148,1.620984 0.907148,1.620984 1.617558,7.821682 1.617558,7.821681 -0.487006,9.006458 L 71.273026,58.5 69.68754,62.25 68.102053,66 Z M 83.555962,65 H 81.897947 L 80.436388,61.501999 78.97483,58.003998 78.366669,50.751999 77.758508,43.5 78.90543,36 l 1.146923,-7.5 1.575708,-4.814783 1.575707,-4.814782 0.435201,0.4352 0.4352,0.435201 -1.229438,11.056616 -1.229438,11.056616 1.163371,9.915652 1.163372,9.915653 0.635971,1.657313 L 85.213978,65 Z"
       id="path37"
       inkscape:connector-curvature="0" />
    <path
       style="fill:#5487b9"
       d="M 39.75,109.96832 38,110 v -0.47968 -0.47967 l 3.75,-1.88254 3.75,-1.88254 6.5,-2.06818 6.5,-2.06817 7.33471,-1.174251 7.334709,-1.174248 5.665291,0.753658 5.66529,0.753661 -8.822245,1.78331 -8.822245,1.7833 -2.56793,1.68258 -2.56793,1.68257 -10.109825,1.35341 -10.109825,1.35342 -1.75,0.0317 z m -9.25,-6.32786 -7,0.40569 -3.171263,-1.4417 -3.171263,-1.44169 L 16.078737,99.147122 15,97.131483 V 95.176525 93.221568 L 16.910266,90.860784 18.820532,88.5 31.660266,87.858083 44.5,87.216166 50.411292,85.106452 56.322584,82.996737 61.661292,78.965974 67,74.93521 66.9906,76.217605 66.9812,77.5 l -2.902997,5.061167 -2.902997,5.061167 -5.929262,5.489451 -5.929263,5.489451 -5.908356,2.316764 -5.908357,2.31677 -7,0.40569 z m 93.90086,0.0321 -5.90086,0.32203 -7.34996,-1.97752 -7.34995,-1.97752 -3.38385,-2.091336 L 97.032393,95.856901 92.690606,90.67845 88.34882,85.5 86.17441,82.34563 84,79.191259 v -1.680798 -1.680798 l 5.046572,3.704524 5.046572,3.704524 6.203426,2.007697 6.20343,2.007697 12.36464,0.655413 12.36464,0.655412 1.88536,2.328319 L 135,93.221568 v 2.333452 2.333453 l -2.34914,2.731037 -2.34915,2.73105 -5.90085,0.32202 z M 161.43231,95 H 154 V 93.871727 92.743453 L 156.87739,87.621727 159.75478,82.5 173.04328,59 186.33177,35.5 188.3402,33.25 190.34863,31 h 12.76992 12.76992 l 2.59063,2.25 2.59064,2.25 16.43929,28.975834 16.4393,28.975833 -0.82329,0.823296 -0.8233,0.823295 -6.82248,-0.299129 -6.82248,-0.299129 -3.66068,-6 -3.66067,-6 -25.91771,-0.281094 -25.91772,-0.281094 -2,0.489144 -2,0.489144 -3.31769,6.04195 L 168.86461,95 Z m 41.60835,-25 h 16.79577 L 221.41821,69.393011 223,68.786022 v -1.00601 -1.006011 L 217.88642,57.637 212.77283,48.5 210.7121,46.25 208.65137,44 h -5.24963 -5.24962 l -2.15138,2.75 -2.15138,2.75 -4.97063,8.842171 -4.97063,8.842171 1.1684,1.407829 L 186.24489,70 Z m 64.4183,24.792294 -6.04104,0.292293 -0.70896,-0.70896 L 260,93.666667 V 67.801215 41.935763 l 1.46623,-3.509172 1.46622,-3.509172 4.4547,-1.970526 4.4547,-1.970526 38.82908,0.261816 L 349.5,31.5 l 0.30796,4.827694 0.30797,4.827694 -1.18041,1.422306 L 347.75511,44 H 312.07756 276.4 l -1.2,1.2 -1.2,1.2 v 4.693011 4.693011 l 1.58179,0.606989 L 277.16357,57 h 35.96593 35.96593 l -0.29771,6.25 -0.29772,6.25 -37,0.5 -37,0.5 -0.5,12 -0.5,12 z M 413,94.653381 l -39.5,0.15338 -3,-0.729732 -3,-0.729732 -2.25,-1.208832 -2.25,-1.208833 -1.75,-2.670837 -1.75,-2.670837 V 62.86731 40.146661 L 361.57108,37.32333 363.64217,34.5 367.07108,32.751554 370.5,31.003108 411.29772,31.001508 452.09543,31 451.79772,37.25 451.5,43.5 413.2128,44 l -38.28721,0.5 -0.94748,1.5 -0.94748,1.5 -0.0153,15.05887 L 373,77.617741 374.41845,79.55887 375.8369,81.5 414.16845,82 452.5,82.5 v 6 6 z M 502.76905,94.994423 465.0381,95 464.44947,92.654677 463.86083,90.309354 464.18041,86.404677 464.5,82.5 501.7011,82 l 37.20111,-0.5 1.24713,-1.248238 1.24714,-1.248238 -0.10479,-3.696848 -0.1048,-3.696847 -1.78457,-1.304914 L 537.61774,69 505.55887,68.978038 473.5,68.956076 l -4.28764,-1.945998 -4.28764,-1.945997 -1.5548,-3.72116 -1.5548,-3.721159 0.34244,-8.739242 L 462.5,40.143278 464.57108,37.321639 466.64217,34.5 470.07108,32.751554 473.5,31.003108 513.29772,31.001554 553.09543,31 552.79772,37.25 552.5,43.5 515.58742,43.762488 478.67483,44.024976 477.33742,45.134932 476,46.244889 v 3.306127 3.306127 l 1.57143,1.571428 L 479.14286,56 h 31.06255 31.06255 l 3.81631,1.143394 3.81631,1.143394 2.79971,2.922268 2.79971,2.922269 v 11.516367 11.516366 l -3.1967,2.85625 -3.1967,2.85625 -3.8033,1.056144 -3.8033,1.056144 -37.73095,0.0056 z"
       id="path35"
       inkscape:connector-curvature="0" />
    <path
       style="fill:#3272ad"
       d="M 42.140996,109 H 40.6 l 0.95,-0.92848 0.95,-0.92848 5.112119,-2.00258 5.11212,-2.00258 7.595722,-1.56894 7.595722,-1.56894 4.792159,0.0912 4.792158,0.0912 -5.5,1.74208 -5.5,1.74207 -3,1.54754 -3,1.54754 -8.409004,1.11917 -8.409004,1.11917 h -1.540996 z m -11.308411,-5.63015 -5.332585,0.5344 -3.187087,-0.96442 -3.187087,-0.96441 -2.08043,-2.644838 -2.08043,-2.644838 0.635797,-2.092872 L 16.236561,92.5 17.773268,90.75 19.309975,89 26.404988,88.980191 33.5,88.960383 l 6.672148,-0.965099 6.672148,-0.965098 5.59345,-2.092778 5.59345,-2.092778 2.878758,-2.422315 L 63.788712,78 H 64.394356 65 v 1.337208 1.337209 l -3.987452,5.568412 -3.987452,5.568412 -4.932276,3.620623 -4.932276,3.620623 -5.497687,1.891483 -5.497687,1.89148 z M 125.5,103.3429 l -3,0.4966 -7,-1.28906 -7,-1.28906 L 103.73901,99.0154 98.978024,96.769416 94.348266,91.634708 89.718507,86.5 l -2.505592,-3.770328 -2.505592,-3.770328 0.650281,-0.650282 0.650282,-0.650281 2.258514,2.121763 2.258514,2.121764 4.74307,2.098085 4.743076,2.098086 7.58244,1.450761 L 115.17594,89 h 7.75704 7.75704 l 1.72533,1.90646 1.72532,1.90646 -0.32034,3.244669 -0.32033,3.244668 -2.5,1.772023 -2.5,1.77202 z m 36.5,-8.474214 -4.5,-0.100689 -1.79677,-0.46633 -1.79677,-0.46633 2.37589,-4.167669 L 158.65824,85.5 173.53922,59.31479 188.42019,33.129579 190.75715,32.06479 193.09411,31 h 9.80372 9.80372 l 3.1662,1.103743 3.1662,1.103742 3.87363,6.646258 3.87363,6.646257 13.18094,23.229738 13.18093,23.229737 -0.63056,1.020263 L 251.88197,95 h -5.00673 -5.00672 L 239.9953,93.997486 238.12209,92.994972 235.34366,87.890086 232.56523,82.7852 230.21752,81.8926 227.8698,81 203.6849,81.01474 179.5,81.02948 l -2.5,1.259907 -2.5,1.259907 -2.6218,4.837104 -2.6218,4.837103 -1.3782,0.872935 -1.3782,0.872938 z M 203.92512,69.771374 222.47416,69.5 l 0.33189,-1.727414 0.3319,-1.727414 -5.6093,-9.994126 -5.6093,-9.994127 -2.18218,-1.52846 L 207.55499,43 h -4.16671 -4.16671 l -2.12791,1.75 -2.1279,1.75 -5.48288,9.954552 L 184,66.409104 v 1.128781 1.128782 l 0.68804,0.68804 0.68804,0.688041 z M 266.04066,95 h -3.79577 l -1.15185,-1.387894 -1.15185,-1.387894 0.27941,-25.907598 0.2794,-25.907599 1.75942,-2.683697 1.75942,-2.683698 3.24058,-1.77081 L 270.5,31.5 h 39 39 l 0.29884,5.714245 0.29883,5.714246 -36.63025,0.285754 L 275.83716,43.5 274.41858,45.44113 273,47.382259 v 3.227083 3.227083 l 0.60699,1.581788 0.60699,1.581787 36.14301,0.01531 36.14301,0.01531 1.31105,0.831435 1.31105,0.831435 -0.31105,4.903252 L 348.5,68.5 311.71263,69 l -36.78737,0.5 -0.94732,1.5 -0.94731,1.5 -0.0153,10.643011 L 273,93.786022 271.41821,94.393011 269.83643,95 Z M 413.5,94.867068 l -36,-0.102306 -4.93615,-0.82611 -4.93615,-0.826111 -2.56385,-1.902669 L 362.5,89.307202 361.26474,86.903601 360.02948,84.5 l -0.011,-22 -0.011,-22 1.95777,-3.210875 1.95777,-3.210876 5.33594,-1.551199 5.33594,-1.5512 38.45255,0.262075 L 451.5,31.5 V 37 42.5 L 413.90237,43 376.30474,43.5 374.65237,44.872445 373,46.244889 v 16.818539 16.818538 l 1.25,0.809017 1.25,0.809017 38,0.5 38,0.5 0.30765,5.405355 0.30764,5.405355 -1.30764,0.829332 -1.30765,0.829332 z m 91.24653,-0.04433 -38.75348,0.322736 -0.55634,-1.449796 -0.55633,-1.449795 0.30981,-4.872941 L 465.5,82.5 l 37,-0.254587 37,-0.254587 1.25,-1.686543 L 542,78.617741 541.98469,75.55887 541.96937,72.5 541.02273,71 540.07608,69.5 506.28804,69 472.5,68.5 469.3107,66.755711 466.12141,65.011423 464.5607,62.783205 463,60.554988 V 50.727834 40.90068 l 1.51693,-2.933413 1.51692,-2.933413 3.23308,-1.766927 L 472.5,31.5 l 39.71771,-0.302734 39.71772,-0.302733 0.60596,2.414361 0.60597,2.414361 -0.32368,3.388372 L 552.5,42.5 l -37,0.5 -37,0.5 -1.25,0.809017 -1.25,0.809017 v 4.318538 4.318539 l 1.2618,1.0472 1.2618,1.0472 32.4882,0.325244 L 543.5,56.5 l 3.69144,1.836153 3.69144,1.836152 1.73772,2.652105 1.73773,2.652104 0.45029,7.778507 0.45029,7.778506 -1.72254,4.510399 -1.72253,4.510399 -4.15692,2.222838 L 543.5,94.5 504.74653,94.822736 Z"
       id="path33"
       inkscape:connector-curvature="0" />
    <path
       style="fill:#01519b"
       d="M 54.237489,106.39362 48,107.09931 v -0.46812 -0.46813 l 6.25,-2.02931 6.25,-2.02931 5,-0.62433 5,-0.62434 -5.012511,2.41608 -5.012511,2.41608 z M 31.88462,101.69745 26.26924,102.25336 26.761849,97.126682 27.254459,92 H 25.960563 24.666667 L 25.110902,91.555765 25.555136,91.11153 34.527568,90.008009 43.5,88.904488 48.121816,87.544211 52.743632,86.183933 56.121816,84.471378 59.5,82.758822 l 1.756131,-1.539947 1.756131,-1.539947 0.489981,0.489982 0.489982,0.489981 -3.476777,4.920555 L 57.038672,90.5 52.408674,94.244123 47.778676,97.988245 42.639338,99.564895 37.5,101.14154 Z m 86.8302,0.21924 -2.21482,-0.0833 -5.84173,-1.41433 -5.84173,-1.414342 -2.97699,-1.752349 L 98.86256,95.5 93.442526,88.75 88.022492,82 h 0.523937 0.523938 l 2.214816,1.418984 2.214817,1.418984 6.042291,1.958611 6.042289,1.958611 5.45771,0.664094 5.45771,0.664095 3.75425,0.546926 3.75425,0.546927 -0.7234,1.161384 -0.72339,1.161384 0.28355,2.195391 0.28356,2.195392 -1.09959,2.054608 -1.0996,2.054609 -2.21481,-0.0833 z M 161.91393,94 H 156 V 92.965312 91.930625 L 160.6232,83.715312 165.24639,75.5 176.26284,56 187.2793,36.5 189.69541,34.25 192.11153,32 h 10.89718 10.89718 l 2.41303,1.099448 2.41303,1.099448 5.52078,9.650552 L 229.77351,53.5 240.88675,73.105279 252,92.710559 v 0.692438 0.692438 L 245.82798,93.797717 239.65597,93.5 l -3.66038,-6 -3.66037,-6 -28.61014,-0.265241 -28.61015,-0.265241 -3.64353,6.515241 L 167.82787,94 Z M 203.93718,70.770515 223.5,70.5 l 0.31704,-2.230856 0.31704,-2.230857 -5.50467,-9.807711 -5.50467,-9.807712 -2.16736,-1.961432 L 208.79002,42.5 H 203.5 198.20998 l -2.21434,2 -2.21433,2 -3.01257,5.963007 -3.01258,5.963006 -2.37808,3.767122 L 183,65.960256 v 1.853205 1.853206 l 0.68718,0.687182 0.68718,0.687181 z M 266.96862,94 h -5.03139 L 261.39206,92.579316 260.8469,91.158632 261.17345,65.829316 261.5,40.5 l 1.27964,-2.23965 1.27965,-2.239649 3.22035,-1.760351 L 270.5,32.5 309.25,32.205985 348,31.91197 V 36.955985 42 l -34.75,0.01474 -34.75,0.01474 -2.5,1.260087 -2.5,1.260087 -0.9332,3.753153 -0.9332,3.753152 0.9568,2.722019 0.9568,2.722018 36.9764,0.5 36.9764,0.5 v 5 5 l -36.5,0.254706 -36.5,0.254706 -1.25,1.686424 -1.25,1.686427 V 83.19113 94 Z M 413.25,93.885001 375.5,93.770002 372,93.070152 368.5,92.370303 366.30128,91.177414 364.10257,89.984526 362.55128,87.769757 361,85.554988 V 63.324547 41.094106 l 1.08521,-2.381782 1.08521,-2.381781 3.16479,-1.915272 L 369.5,32.5 410.25,32.207832 451,31.915663 V 36.957832 42 h -35.9349 -35.9349 l -2.79475,1.062561 -2.79475,1.062561 -0.75504,1.187439 L 372.03063,46.5 372.01531,63.193296 372,79.886592 374.22251,81.443296 376.44501,83 H 413.72251 451 V 88.5 94 Z M 501.95078,94 H 466 V 88.5 83 h 36.9433 36.94329 L 541.4433,80.777494 543,78.554988 v -3.16671 -3.16671 l -1.75,-2.08021 -1.75,-2.08021 L 506,67.780574 472.5,67.5 469.27964,65.73965 466.05929,63.979299 464.83925,61.73965 463.61922,59.5 l 0.13056,-9.183967 0.13057,-9.183967 1.51266,-2.925179 1.51267,-2.925179 3.29716,-1.390854 L 473.5,32.5 h 39 39 l 0.30479,4.75 0.30479,4.75 -35.80479,0.01474 -35.80479,0.01474 -2.5,1.258645 -2.5,1.258646 -0.30563,4.188406 -0.30563,4.188407 1.06406,1.988211 1.06405,1.98821 33.24158,0.299996 L 543.5,57.5 l 3.67273,1.827273 3.67272,1.827273 1.67294,3.525452 1.67294,3.525453 -0.34567,8.832856 -0.34566,8.832855 -2.88555,3.010626 -2.88556,3.010626 -4.91367,1.053793 L 537.90156,94 Z"
       id="path31"
       inkscape:connector-curvature="0" />
  </g>
</svg>
